<svg xmlns="http://www.w3.org/2000/svg" width="30" height="29.952" viewBox="0 0 30 29.952">
  <path id="polygon7" d="M24.283,1a6.674,6.674,0,0,0-5.268,2.6,14.141,14.141,0,1,0,9.341,9.421A6.692,6.692,0,0,0,24.283,1Zm0,1.033A5.684,5.684,0,1,1,18.6,7.717,5.688,5.688,0,0,1,24.283,2.033Zm-9.3,2a13,13,0,0,1,3.435.484,6.662,6.662,0,0,0,9.022,9.094,12.659,12.659,0,0,1-3.383,12.578,11.561,11.561,0,0,0-6.438-4.238,5.681,5.681,0,1,0-5.478,0,11.571,11.571,0,0,0-6.366,4.121A12.939,12.939,0,0,1,14.979,4.031Zm8.743.585V7.192H21.191V8.226h2.531V10.8h1.033V8.226h2.62V7.192h-2.62V4.617Zm-8.816,7.722a4.645,4.645,0,0,1,.133,9.288c-.058,0-.118-.012-.178-.012s-.1.006-.149.008a4.644,4.644,0,0,1,.194-9.284Zm-.194,10.318c.05,0,.1.016.145.016h.048c.045,0,.084-.014.129-.016a10.52,10.52,0,0,1,8.251,4.23A12.9,12.9,0,0,1,6.53,26.766a10.544,10.544,0,0,1,8.182-4.109Z" transform="translate(-1 -1)" fill="#231f20"/>
</svg>
