<svg xmlns="http://www.w3.org/2000/svg" width="30" height="30" viewBox="0 0 30 30">
  <path id="create_form" d="M15,0A15,15,0,1,0,30,15,15,15,0,0,0,15,0Zm0,.632A14.368,14.368,0,1,1,.632,15,14.363,14.363,0,0,1,15,.632ZM7.188,6.064a.313.313,0,0,0-.312.312V22a.313.313,0,0,0,.312.313H9.55l-.344,1.03a.313.313,0,0,0,.4.4l2.65-.884a.313.313,0,0,0,.074-.037l.009-.007h0l0-.006a.312.312,0,0,0,.031-.026l.012-.011.487-.487A.313.313,0,0,0,13,22.3h6.061a.313.313,0,0,0,.312-.312V15.958a.313.313,0,0,0-.035-.15l2.742-2.742.016-.015.022-.023.641-.64a1.259,1.259,0,0,0,.16-.2,1.237,1.237,0,0,0,.113-.216,1.258,1.258,0,0,0,.092-.469,1.266,1.266,0,0,0-.023-.239,1.24,1.24,0,0,0-.342-.645l-.442-.442a1.255,1.255,0,0,0-1.572-.16,1.243,1.243,0,0,0-.2.16l-.647.647-.016.016-.513.509v-.587q0-.01,0-.021V8.94a.313.313,0,0,0-.145-.27l-2.5-2.5a.284.284,0,0,0-.145-.077.313.313,0,0,0-.145-.034H7.188Zm.313.625h8.743V8.906a.284.284,0,0,0,.284.283H18.75v.935q0,.011,0,.022V11.81a.313.313,0,0,0,.03.138L17.5,13.23V10.439H8.75v7.5h4.039l-2.624,2.625a.313.313,0,0,0-.044.057q-.008.013-.015.027a.312.312,0,0,0-.012.029l0,.01,0,.015-.327.982H7.5Zm9.312.372,1.565,1.56H16.812ZM8.75,7.314V9.189H12.5V7.314H8.75Zm.625.625h2.5v.625h-2.5V7.939Zm12.059,2.494h0a.624.624,0,0,1,.442.187l.442.442a.615.615,0,0,1,.14.675.646.646,0,0,1-.14.208l-.442.442-.442-.442-.442-.442-.442-.442.442-.442A.623.623,0,0,1,21.434,10.433Zm-12.059.631H10v.625H9.375v-.625Zm1.25,0h3.75v.625h-3.75Zm4.375,0h1.875v.625H15Zm5.109.441.442.442L11.27,21.228l-.442-.443Zm-10.734.809H10v5H9.375Zm1.25,0h3.75v4.039l-.961.961H10.625Zm4.375,0h1.875v1.541L15,15.729Zm5.992.074.442.442-9.28,9.281-.443-.442ZM18.75,16.4V17q0,.012,0,.023v4.663H13.467Zm-8.228,4.966,1.052,1.052L10,22.943Z"/>
</svg>
