<svg xmlns="http://www.w3.org/2000/svg" width="100" height="100" viewBox="0 0 100 100"><g transform="translate(-11.995 -11.995)"><circle cx="50" cy="50" r="50" transform="translate(11.995 11.995)" fill="#239fdb"/><g transform="translate(18.289 31.292)"><g transform="translate(14 9)"><path d="M30.305,28.527a13.044,13.044,0,1,0-9.224-3.822,13,13,0,0,0,9.224,3.822Zm20.87,2.609a6.511,6.511,0,1,0-4.615-1.907A6.509,6.509,0,0,0,51.175,31.136Zm0,1.539c-3.472,0-6.083,1.059-7.61,2.525-2.909-2.392-7.508-4.064-13.26-4.064-5.911,0-10.422,1.69-13.283,4.08a11,11,0,0,0-7.586-2.541c-5.708,0-9.13,2.843-9.13,5.692,0,1.422,3.423,2.849,9.13,2.849a25.007,25.007,0,0,0,4.234-.347l-.1.7c0,2.609,6.277,5.217,16.74,5.217,9.814,0,16.74-2.609,16.74-5.217l-.052-.665a26.849,26.849,0,0,0,4.182.308c5.35,0,9.13-1.427,9.13-2.849C60.305,35.518,56.723,32.675,51.175,32.675ZM9.435,31.136A6.509,6.509,0,1,0,4.82,29.229,6.5,6.5,0,0,0,9.435,31.136Z" transform="translate(-0.305 -2.44)" fill="#fff"/></g></g></g></svg>