<svg xmlns="http://www.w3.org/2000/svg" width="14" height="14.001" viewBox="0 0 14 14.001">
  <path id="Icon_material-update" data-name="Icon material-update" d="M18.5,10.038H13.228l2.131-2.193a5.475,5.475,0,0,0-7.685-.078,5.348,5.348,0,0,0,0,7.615,5.46,5.46,0,0,0,7.685,0,5.066,5.066,0,0,0,1.587-3.8H18.5a7.266,7.266,0,0,1-2.053,4.893,7.042,7.042,0,0,1-9.894,0,6.876,6.876,0,0,1-.016-9.785,6.991,6.991,0,0,1,9.84,0L18.5,4.5ZM11.89,8.389v3.306l2.722,1.618-.56.941-3.329-1.976V8.389Z" transform="translate(-4.502 -4.5)" opacity="0.5"/>
</svg>
